<mxfile host="Electron" agent="Mozilla/5.0 (Macintosh; Intel Mac OS X 10_15_7) AppleWebKit/537.36 (KHTML, like Gecko) draw.io/24.7.5 Chrome/126.0.6478.183 Electron/31.3.0 Safari/537.36" version="24.7.5">
  <diagram name="Page-1" id="Ci4nb_3HSOpt36iI__ej">
    <mxGraphModel dx="1687" dy="1034" grid="1" gridSize="10" guides="1" tooltips="1" connect="1" arrows="1" fold="1" page="1" pageScale="1" pageWidth="850" pageHeight="1100" math="0" shadow="0">
      <root>
        <mxCell id="0" />
        <mxCell id="1" parent="0" />
        <mxCell id="bhMpjSE9PIOtKv3lSAhE-178" value="" style="rounded=1;whiteSpace=wrap;html=1;dashed=1;fillColor=#f5f5f5;fontColor=#333333;strokeColor=#666666;" vertex="1" parent="1">
          <mxGeometry x="30" y="700" width="970" height="390" as="geometry" />
        </mxCell>
        <mxCell id="bhMpjSE9PIOtKv3lSAhE-67" value="" style="rounded=1;whiteSpace=wrap;html=1;fillColor=#f8cecc;strokeColor=#CC0000;movable=0;resizable=0;rotatable=0;deletable=0;editable=0;locked=1;connectable=0;" vertex="1" parent="1">
          <mxGeometry x="416" y="294.5" width="130" height="246.5" as="geometry" />
        </mxCell>
        <mxCell id="bhMpjSE9PIOtKv3lSAhE-45" value="" style="rounded=1;whiteSpace=wrap;html=1;fillColor=#f5f5f5;fontColor=#333333;strokeColor=#666666;dashed=1;movable=1;resizable=1;rotatable=1;deletable=1;editable=1;locked=0;connectable=1;" vertex="1" parent="1">
          <mxGeometry x="650" y="280" width="230" height="280" as="geometry" />
        </mxCell>
        <mxCell id="bhMpjSE9PIOtKv3lSAhE-1" value="" style="sketch=0;pointerEvents=1;shadow=0;dashed=0;html=1;strokeColor=none;fillColor=#434445;aspect=fixed;labelPosition=center;verticalLabelPosition=bottom;verticalAlign=top;align=center;outlineConnect=0;shape=mxgraph.vvd.web_browser;" vertex="1" parent="1">
          <mxGeometry x="160" y="160" width="112.67" height="80" as="geometry" />
        </mxCell>
        <mxCell id="bhMpjSE9PIOtKv3lSAhE-2" value="helloworld.com" style="text;html=1;align=center;verticalAlign=middle;whiteSpace=wrap;rounded=0;fontFamily=Verdana;fontSize=12;shadow=1;" vertex="1" parent="1">
          <mxGeometry x="167.34" y="141" width="100" height="20" as="geometry" />
        </mxCell>
        <mxCell id="bhMpjSE9PIOtKv3lSAhE-3" value="" style="sketch=0;pointerEvents=1;shadow=0;dashed=0;html=1;strokeColor=none;fillColor=#005F4B;labelPosition=center;verticalLabelPosition=bottom;verticalAlign=top;align=center;outlineConnect=0;shape=mxgraph.veeam2.dns;" vertex="1" parent="1">
          <mxGeometry x="440" y="162" width="80" height="79" as="geometry" />
        </mxCell>
        <mxCell id="bhMpjSE9PIOtKv3lSAhE-9" value="Client" style="sketch=0;outlineConnect=0;strokeColor=#82b366;fillColor=#d5e8d4;dashed=0;verticalLabelPosition=bottom;verticalAlign=top;align=center;html=1;fontSize=12;fontStyle=0;aspect=fixed;shape=mxgraph.aws4.resourceIcon;resIcon=mxgraph.aws4.client;movable=1;resizable=1;rotatable=1;deletable=1;editable=1;locked=0;connectable=1;" vertex="1" parent="1">
          <mxGeometry x="685" y="320" width="40" height="40" as="geometry" />
        </mxCell>
        <mxCell id="bhMpjSE9PIOtKv3lSAhE-10" value="" style="html=1;points=[[0,0,0,0,5],[0,1,0,0,-5],[1,0,0,0,5],[1,1,0,0,-5]];perimeter=orthogonalPerimeter;outlineConnect=0;targetShapes=umlLifeline;portConstraint=eastwest;newEdgeStyle={&quot;curved&quot;:0,&quot;rounded&quot;:0};fillColor=#d5e8d4;strokeColor=#82b366;movable=1;resizable=1;rotatable=1;deletable=1;editable=1;locked=0;connectable=1;" vertex="1" parent="1">
          <mxGeometry x="700" y="390" width="10" height="160" as="geometry" />
        </mxCell>
        <mxCell id="bhMpjSE9PIOtKv3lSAhE-11" value="" style="html=1;points=[[0,0,0,0,5],[0,1,0,0,-5],[1,0,0,0,5],[1,1,0,0,-5]];perimeter=orthogonalPerimeter;outlineConnect=0;targetShapes=umlLifeline;portConstraint=eastwest;newEdgeStyle={&quot;curved&quot;:0,&quot;rounded&quot;:0};fillColor=#00188D;strokeColor=#00188D;movable=1;resizable=1;rotatable=1;deletable=1;editable=1;locked=0;connectable=1;" vertex="1" parent="1">
          <mxGeometry x="830" y="390" width="10" height="160" as="geometry" />
        </mxCell>
        <mxCell id="bhMpjSE9PIOtKv3lSAhE-12" value="" style="endArrow=classic;html=1;rounded=0;strokeWidth=2;fillColor=#60a917;strokeColor=#2D7600;movable=1;resizable=1;rotatable=1;deletable=1;editable=1;locked=0;connectable=1;" edge="1" parent="1">
          <mxGeometry width="50" height="50" relative="1" as="geometry">
            <mxPoint x="713" y="400" as="sourcePoint" />
            <mxPoint x="830" y="430" as="targetPoint" />
          </mxGeometry>
        </mxCell>
        <mxCell id="bhMpjSE9PIOtKv3lSAhE-13" value="" style="endArrow=classic;html=1;rounded=0;strokeWidth=2;fillColor=#60a917;strokeColor=#2D7600;movable=1;resizable=1;rotatable=1;deletable=1;editable=1;locked=0;connectable=1;" edge="1" parent="1">
          <mxGeometry width="50" height="50" relative="1" as="geometry">
            <mxPoint x="830" y="450" as="sourcePoint" />
            <mxPoint x="716" y="480" as="targetPoint" />
          </mxGeometry>
        </mxCell>
        <mxCell id="bhMpjSE9PIOtKv3lSAhE-17" value="TCP SYN" style="text;html=1;align=center;verticalAlign=middle;whiteSpace=wrap;rounded=0;rotation=15;fontStyle=1;fontSize=11;fontFamily=Verdana;movable=1;resizable=1;rotatable=1;deletable=1;editable=1;locked=0;connectable=1;" vertex="1" parent="1">
          <mxGeometry x="732.5" y="390" width="70" height="20" as="geometry" />
        </mxCell>
        <mxCell id="bhMpjSE9PIOtKv3lSAhE-39" value="" style="sketch=0;aspect=fixed;pointerEvents=1;shadow=0;dashed=0;html=1;strokeColor=none;labelPosition=center;verticalLabelPosition=bottom;verticalAlign=top;align=center;fillColor=#00188D;shape=mxgraph.mscae.enterprise.application_server2;movable=1;resizable=1;rotatable=1;deletable=1;editable=1;locked=0;connectable=1;" vertex="1" parent="1">
          <mxGeometry x="820.88" y="322" width="32.25" height="37.5" as="geometry" />
        </mxCell>
        <mxCell id="bhMpjSE9PIOtKv3lSAhE-40" value="TCP SYN + ACK" style="text;html=1;align=center;verticalAlign=middle;whiteSpace=wrap;rounded=0;rotation=-15;fontStyle=1;fontSize=11;fontFamily=Verdana;movable=1;resizable=1;rotatable=1;deletable=1;editable=1;locked=0;connectable=1;" vertex="1" parent="1">
          <mxGeometry x="720.1600000000001" y="438.66" width="99.66" height="20" as="geometry" />
        </mxCell>
        <mxCell id="bhMpjSE9PIOtKv3lSAhE-41" value="" style="endArrow=classic;html=1;rounded=0;strokeWidth=2;fillColor=#60a917;strokeColor=#2D7600;movable=1;resizable=1;rotatable=1;deletable=1;editable=1;locked=0;connectable=1;" edge="1" parent="1">
          <mxGeometry width="50" height="50" relative="1" as="geometry">
            <mxPoint x="713" y="500" as="sourcePoint" />
            <mxPoint x="830" y="530" as="targetPoint" />
          </mxGeometry>
        </mxCell>
        <mxCell id="bhMpjSE9PIOtKv3lSAhE-42" value="TCP ACK" style="text;html=1;align=center;verticalAlign=middle;whiteSpace=wrap;rounded=0;rotation=15;fontStyle=1;fontSize=11;fontFamily=Verdana;movable=1;resizable=1;rotatable=1;deletable=1;editable=1;locked=0;connectable=1;" vertex="1" parent="1">
          <mxGeometry x="745" y="490" width="70" height="20" as="geometry" />
        </mxCell>
        <mxCell id="bhMpjSE9PIOtKv3lSAhE-44" value="Server" style="text;html=1;align=center;verticalAlign=middle;whiteSpace=wrap;rounded=0;fontFamily=Verdana;fontSize=11;movable=1;resizable=1;rotatable=1;deletable=1;editable=1;locked=0;connectable=1;" vertex="1" parent="1">
          <mxGeometry x="811.25" y="360" width="47.5" height="22.5" as="geometry" />
        </mxCell>
        <mxCell id="bhMpjSE9PIOtKv3lSAhE-56" style="edgeStyle=orthogonalEdgeStyle;rounded=0;orthogonalLoop=1;jettySize=auto;html=1;exitX=1;exitY=0.5;exitDx=0;exitDy=0;strokeWidth=2;dashed=1;fillColor=#60a917;strokeColor=#2D7600;" edge="1" parent="1" source="bhMpjSE9PIOtKv3lSAhE-46" target="bhMpjSE9PIOtKv3lSAhE-55">
          <mxGeometry relative="1" as="geometry" />
        </mxCell>
        <mxCell id="bhMpjSE9PIOtKv3lSAhE-46" value="TCP/IP" style="ellipse;whiteSpace=wrap;html=1;aspect=fixed;fillColor=#dae8fc;strokeColor=#6c8ebf;fontFamily=Verdana;fontStyle=1" vertex="1" parent="1">
          <mxGeometry x="720" y="160" width="80" height="80" as="geometry" />
        </mxCell>
        <mxCell id="bhMpjSE9PIOtKv3lSAhE-47" value="Initiate TCP Connection" style="text;html=1;align=center;verticalAlign=middle;whiteSpace=wrap;rounded=0;fontFamily=Verdana;fontStyle=1;shadow=0;textShadow=1;" vertex="1" parent="1">
          <mxGeometry x="680" y="280" width="170" height="30" as="geometry" />
        </mxCell>
        <mxCell id="bhMpjSE9PIOtKv3lSAhE-48" value="" style="curved=1;endArrow=classic;html=1;rounded=0;exitX=0;exitY=1;exitDx=0;exitDy=0;dashed=1;strokeWidth=2;fillColor=#dae8fc;strokeColor=#6c8ebf;" edge="1" parent="1" source="bhMpjSE9PIOtKv3lSAhE-46" target="bhMpjSE9PIOtKv3lSAhE-9">
          <mxGeometry width="50" height="50" relative="1" as="geometry">
            <mxPoint x="480" y="440" as="sourcePoint" />
            <mxPoint x="530" y="390" as="targetPoint" />
            <Array as="points">
              <mxPoint x="630" y="270" />
              <mxPoint x="610" y="330" />
            </Array>
          </mxGeometry>
        </mxCell>
        <mxCell id="bhMpjSE9PIOtKv3lSAhE-49" value="" style="curved=1;endArrow=classic;html=1;rounded=0;exitX=1.013;exitY=0.882;exitDx=0;exitDy=0;exitPerimeter=0;entryX=0.5;entryY=1;entryDx=0;entryDy=0;fillColor=#d5e8d4;strokeColor=#82b366;strokeWidth=2;dashed=1;" edge="1" parent="1" source="bhMpjSE9PIOtKv3lSAhE-45" target="bhMpjSE9PIOtKv3lSAhE-46">
          <mxGeometry width="50" height="50" relative="1" as="geometry">
            <mxPoint x="430" y="440" as="sourcePoint" />
            <mxPoint x="480" y="390" as="targetPoint" />
            <Array as="points">
              <mxPoint x="920" y="450" />
              <mxPoint x="930" y="400" />
              <mxPoint x="930" y="340" />
              <mxPoint x="910" y="230" />
              <mxPoint x="790" y="270" />
            </Array>
          </mxGeometry>
        </mxCell>
        <mxCell id="bhMpjSE9PIOtKv3lSAhE-51" value="" style="sketch=0;html=1;aspect=fixed;strokeColor=none;shadow=0;align=center;fillColor=#2D9C5E;verticalAlign=top;labelPosition=center;verticalLabelPosition=bottom;shape=mxgraph.gcp2.check" vertex="1" parent="1">
          <mxGeometry x="832.08" y="239.00000000000003" width="26.67" height="21.34" as="geometry" />
        </mxCell>
        <mxCell id="bhMpjSE9PIOtKv3lSAhE-52" value="" style="sketch=0;outlineConnect=0;fillColor=#e51400;strokeColor=#B20000;dashed=0;verticalLabelPosition=bottom;verticalAlign=top;align=center;html=1;fontSize=12;fontStyle=0;aspect=fixed;pointerEvents=1;shape=mxgraph.aws4.question;fontColor=#ffffff;" vertex="1" parent="1">
          <mxGeometry x="663" y="241" width="15.59" height="29.66" as="geometry" />
        </mxCell>
        <mxCell id="bhMpjSE9PIOtKv3lSAhE-53" value="" style="endArrow=classic;html=1;rounded=0;dashed=1;strokeWidth=2;fillColor=#60a917;strokeColor=#2D7600;" edge="1" parent="1" source="bhMpjSE9PIOtKv3lSAhE-1" target="bhMpjSE9PIOtKv3lSAhE-3">
          <mxGeometry width="50" height="50" relative="1" as="geometry">
            <mxPoint x="280" y="200" as="sourcePoint" />
            <mxPoint x="810" y="390" as="targetPoint" />
          </mxGeometry>
        </mxCell>
        <mxCell id="bhMpjSE9PIOtKv3lSAhE-54" value="" style="endArrow=classic;html=1;rounded=0;entryX=0;entryY=0.5;entryDx=0;entryDy=0;dashed=1;strokeWidth=2;strokeColor=#2D7600;fillColor=#60a917;" edge="1" parent="1" source="bhMpjSE9PIOtKv3lSAhE-3" target="bhMpjSE9PIOtKv3lSAhE-46">
          <mxGeometry width="50" height="50" relative="1" as="geometry">
            <mxPoint x="290" y="210" as="sourcePoint" />
            <mxPoint x="450" y="211" as="targetPoint" />
          </mxGeometry>
        </mxCell>
        <mxCell id="bhMpjSE9PIOtKv3lSAhE-55" value="" style="sketch=0;outlineConnect=0;fontColor=#232F3E;gradientColor=none;fillColor=#7AA116;strokeColor=none;dashed=0;verticalLabelPosition=bottom;verticalAlign=top;align=center;html=1;fontSize=12;fontStyle=0;aspect=fixed;pointerEvents=1;shape=mxgraph.aws4.http_protocol;" vertex="1" parent="1">
          <mxGeometry x="1120" y="161" width="78" height="78" as="geometry" />
        </mxCell>
        <mxCell id="bhMpjSE9PIOtKv3lSAhE-57" value="" style="image;aspect=fixed;perimeter=ellipsePerimeter;html=1;align=center;shadow=0;dashed=0;spacingTop=3;image=img/lib/active_directory/internet_globe.svg;" vertex="1" parent="1">
          <mxGeometry x="1120" y="320" width="80" height="80" as="geometry" />
        </mxCell>
        <mxCell id="bhMpjSE9PIOtKv3lSAhE-58" value="Cache" style="rounded=1;whiteSpace=wrap;html=1;fontFamily=Verdana;fillColor=#ffcc99;strokeColor=#CC6600;fontStyle=1;fontSize=12;movable=0;resizable=0;rotatable=0;deletable=0;editable=0;locked=1;connectable=0;" vertex="1" parent="1">
          <mxGeometry x="440" y="281.00000000000006" width="80" height="30" as="geometry" />
        </mxCell>
        <mxCell id="bhMpjSE9PIOtKv3lSAhE-59" value="Browser" style="rounded=1;whiteSpace=wrap;html=1;fontFamily=Verdana;fillColor=#ffcc99;strokeColor=#CC6600;fontStyle=1;fontSize=12;movable=0;resizable=0;rotatable=0;deletable=0;editable=0;locked=1;connectable=0;" vertex="1" parent="1">
          <mxGeometry x="440" y="336" width="80" height="30" as="geometry" />
        </mxCell>
        <mxCell id="bhMpjSE9PIOtKv3lSAhE-60" value="Operating System" style="rounded=1;whiteSpace=wrap;html=1;fontFamily=Verdana;fillColor=#ffcc99;strokeColor=#CC6600;fontStyle=1;fontSize=12;movable=0;resizable=0;rotatable=0;deletable=0;editable=0;locked=1;connectable=0;" vertex="1" parent="1">
          <mxGeometry x="440" y="391" width="80" height="30" as="geometry" />
        </mxCell>
        <mxCell id="bhMpjSE9PIOtKv3lSAhE-61" value="Router" style="rounded=1;whiteSpace=wrap;html=1;fontFamily=Verdana;fillColor=#ffcc99;strokeColor=#CC6600;fontStyle=1;fontSize=12;movable=0;resizable=0;rotatable=0;deletable=0;editable=0;locked=1;connectable=0;" vertex="1" parent="1">
          <mxGeometry x="440" y="446" width="80" height="30" as="geometry" />
        </mxCell>
        <mxCell id="bhMpjSE9PIOtKv3lSAhE-62" value="ISP" style="rounded=1;whiteSpace=wrap;html=1;fontFamily=Verdana;fillColor=#ffcc99;strokeColor=#CC6600;fontStyle=1;fontSize=12;movable=0;resizable=0;rotatable=0;deletable=0;editable=0;locked=1;connectable=0;" vertex="1" parent="1">
          <mxGeometry x="440" y="501" width="80" height="30" as="geometry" />
        </mxCell>
        <mxCell id="bhMpjSE9PIOtKv3lSAhE-63" value="" style="endArrow=none;html=1;rounded=0;entryX=0.5;entryY=1;entryDx=0;entryDy=0;exitX=0.5;exitY=0;exitDx=0;exitDy=0;dashed=1;strokeWidth=2;strokeColor=#CC0000;movable=0;resizable=0;rotatable=0;deletable=0;editable=0;locked=1;connectable=0;" edge="1" parent="1" source="bhMpjSE9PIOtKv3lSAhE-59" target="bhMpjSE9PIOtKv3lSAhE-58">
          <mxGeometry width="50" height="50" relative="1" as="geometry">
            <mxPoint x="890" y="381" as="sourcePoint" />
            <mxPoint x="940" y="331" as="targetPoint" />
          </mxGeometry>
        </mxCell>
        <mxCell id="bhMpjSE9PIOtKv3lSAhE-64" value="" style="endArrow=none;html=1;rounded=0;entryX=0.5;entryY=1;entryDx=0;entryDy=0;exitX=0.5;exitY=0;exitDx=0;exitDy=0;dashed=1;strokeWidth=2;strokeColor=#CC0000;movable=0;resizable=0;rotatable=0;deletable=0;editable=0;locked=1;connectable=0;" edge="1" parent="1" source="bhMpjSE9PIOtKv3lSAhE-60" target="bhMpjSE9PIOtKv3lSAhE-59">
          <mxGeometry width="50" height="50" relative="1" as="geometry">
            <mxPoint x="490" y="346" as="sourcePoint" />
            <mxPoint x="490" y="321" as="targetPoint" />
          </mxGeometry>
        </mxCell>
        <mxCell id="bhMpjSE9PIOtKv3lSAhE-65" value="" style="endArrow=none;html=1;rounded=0;entryX=0.5;entryY=1;entryDx=0;entryDy=0;exitX=0.5;exitY=0;exitDx=0;exitDy=0;dashed=1;strokeWidth=2;strokeColor=#CC0000;movable=0;resizable=0;rotatable=0;deletable=0;editable=0;locked=1;connectable=0;" edge="1" parent="1" source="bhMpjSE9PIOtKv3lSAhE-61" target="bhMpjSE9PIOtKv3lSAhE-60">
          <mxGeometry width="50" height="50" relative="1" as="geometry">
            <mxPoint x="490" y="401" as="sourcePoint" />
            <mxPoint x="490" y="376" as="targetPoint" />
          </mxGeometry>
        </mxCell>
        <mxCell id="bhMpjSE9PIOtKv3lSAhE-66" value="" style="endArrow=none;html=1;rounded=0;entryX=0.5;entryY=1;entryDx=0;entryDy=0;exitX=0.5;exitY=0;exitDx=0;exitDy=0;dashed=1;strokeWidth=2;strokeColor=#CC0000;movable=0;resizable=0;rotatable=0;deletable=0;editable=0;locked=1;connectable=0;" edge="1" parent="1" source="bhMpjSE9PIOtKv3lSAhE-62" target="bhMpjSE9PIOtKv3lSAhE-61">
          <mxGeometry width="50" height="50" relative="1" as="geometry">
            <mxPoint x="490" y="456" as="sourcePoint" />
            <mxPoint x="490" y="431" as="targetPoint" />
          </mxGeometry>
        </mxCell>
        <mxCell id="bhMpjSE9PIOtKv3lSAhE-68" value="What&#39;s the IP of www.helloworld.com" style="rounded=1;whiteSpace=wrap;html=1;fontFamily=Verdana;fillColor=#fff2cc;strokeColor=#d6b656;" vertex="1" parent="1">
          <mxGeometry x="190" y="301" width="160" height="40" as="geometry" />
        </mxCell>
        <mxCell id="bhMpjSE9PIOtKv3lSAhE-75" style="edgeStyle=orthogonalEdgeStyle;rounded=0;orthogonalLoop=1;jettySize=auto;html=1;exitX=1;exitY=0.5;exitDx=0;exitDy=0;entryX=1;entryY=0.5;entryDx=0;entryDy=0;curved=1;dashed=1;strokeWidth=2;fillColor=#f0a30a;strokeColor=#BD7000;" edge="1" parent="1" source="bhMpjSE9PIOtKv3lSAhE-69" target="bhMpjSE9PIOtKv3lSAhE-77">
          <mxGeometry relative="1" as="geometry">
            <Array as="points">
              <mxPoint x="380" y="384" />
              <mxPoint x="380" y="449" />
            </Array>
          </mxGeometry>
        </mxCell>
        <mxCell id="bhMpjSE9PIOtKv3lSAhE-69" value="Root Domain Name Server" style="rounded=1;whiteSpace=wrap;html=1;fontFamily=Verdana;fillColor=#fff2cc;strokeColor=#d6b656;" vertex="1" parent="1">
          <mxGeometry x="190" y="363.5" width="160" height="40" as="geometry" />
        </mxCell>
        <mxCell id="bhMpjSE9PIOtKv3lSAhE-79" style="edgeStyle=orthogonalEdgeStyle;rounded=0;orthogonalLoop=1;jettySize=auto;html=1;exitX=1;exitY=0.5;exitDx=0;exitDy=0;entryX=1;entryY=0.5;entryDx=0;entryDy=0;curved=1;strokeWidth=2;dashed=1;fillColor=#f0a30a;strokeColor=#BD7000;" edge="1" parent="1" source="bhMpjSE9PIOtKv3lSAhE-70" target="bhMpjSE9PIOtKv3lSAhE-71">
          <mxGeometry relative="1" as="geometry">
            <Array as="points">
              <mxPoint x="380" y="510" />
              <mxPoint x="380" y="574" />
            </Array>
          </mxGeometry>
        </mxCell>
        <mxCell id="bhMpjSE9PIOtKv3lSAhE-70" value="2nd Level Domain Name Server" style="rounded=1;whiteSpace=wrap;html=1;fontFamily=Verdana;fillColor=#fff2cc;strokeColor=#d6b656;" vertex="1" parent="1">
          <mxGeometry x="187.38" y="490" width="160" height="40" as="geometry" />
        </mxCell>
        <mxCell id="bhMpjSE9PIOtKv3lSAhE-80" style="edgeStyle=orthogonalEdgeStyle;rounded=0;orthogonalLoop=1;jettySize=auto;html=1;exitX=0;exitY=0.5;exitDx=0;exitDy=0;curved=1;strokeWidth=2;dashed=1;fillColor=#f0a30a;strokeColor=#BD7000;" edge="1" parent="1" source="bhMpjSE9PIOtKv3lSAhE-71">
          <mxGeometry relative="1" as="geometry">
            <mxPoint x="480" y="541" as="targetPoint" />
            <Array as="points">
              <mxPoint x="167" y="574" />
              <mxPoint x="167" y="640" />
              <mxPoint x="460" y="640" />
              <mxPoint x="460" y="570" />
              <mxPoint x="481" y="570" />
            </Array>
          </mxGeometry>
        </mxCell>
        <mxCell id="bhMpjSE9PIOtKv3lSAhE-71" value="3rd Level Domain Name Server" style="rounded=1;whiteSpace=wrap;html=1;fontFamily=Verdana;fillColor=#fff2cc;strokeColor=#d6b656;" vertex="1" parent="1">
          <mxGeometry x="187.38" y="554" width="160" height="40" as="geometry" />
        </mxCell>
        <mxCell id="bhMpjSE9PIOtKv3lSAhE-72" value="" style="endArrow=classic;html=1;rounded=0;entryX=1;entryY=0.5;entryDx=0;entryDy=0;strokeWidth=2;dashed=1;fillColor=#e51400;strokeColor=#FF0000;" edge="1" parent="1" target="bhMpjSE9PIOtKv3lSAhE-68">
          <mxGeometry width="50" height="50" relative="1" as="geometry">
            <mxPoint x="410" y="321" as="sourcePoint" />
            <mxPoint x="380" y="150" as="targetPoint" />
          </mxGeometry>
        </mxCell>
        <mxCell id="bhMpjSE9PIOtKv3lSAhE-73" value="Cache hit Failed" style="text;html=1;align=center;verticalAlign=middle;whiteSpace=wrap;rounded=0;fontFamily=Verdana;fontSize=9;shadow=1;fontStyle=1;fontColor=#FF0000;" vertex="1" parent="1">
          <mxGeometry x="351" y="294.5" width="65" height="20" as="geometry" />
        </mxCell>
        <mxCell id="bhMpjSE9PIOtKv3lSAhE-74" value="" style="endArrow=classic;html=1;rounded=0;exitX=0;exitY=0.5;exitDx=0;exitDy=0;entryX=0;entryY=0.5;entryDx=0;entryDy=0;edgeStyle=orthogonalEdgeStyle;curved=1;strokeWidth=2;dashed=1;fillColor=#f0a30a;strokeColor=#BD7000;" edge="1" parent="1" source="bhMpjSE9PIOtKv3lSAhE-68" target="bhMpjSE9PIOtKv3lSAhE-69">
          <mxGeometry width="50" height="50" relative="1" as="geometry">
            <mxPoint x="280" y="200" as="sourcePoint" />
            <mxPoint x="330" y="150" as="targetPoint" />
            <Array as="points">
              <mxPoint x="160" y="321" />
              <mxPoint x="160" y="384" />
            </Array>
          </mxGeometry>
        </mxCell>
        <mxCell id="bhMpjSE9PIOtKv3lSAhE-78" style="edgeStyle=orthogonalEdgeStyle;rounded=0;orthogonalLoop=1;jettySize=auto;html=1;exitX=0;exitY=0.5;exitDx=0;exitDy=0;entryX=0;entryY=0.5;entryDx=0;entryDy=0;curved=1;strokeWidth=2;dashed=1;fillColor=#f0a30a;strokeColor=#BD7000;" edge="1" parent="1" source="bhMpjSE9PIOtKv3lSAhE-77" target="bhMpjSE9PIOtKv3lSAhE-70">
          <mxGeometry relative="1" as="geometry">
            <Array as="points">
              <mxPoint x="160" y="449" />
              <mxPoint x="160" y="510" />
            </Array>
          </mxGeometry>
        </mxCell>
        <mxCell id="bhMpjSE9PIOtKv3lSAhE-77" value="Top Level Domain Name Server" style="rounded=1;whiteSpace=wrap;html=1;fontFamily=Verdana;fillColor=#fff2cc;strokeColor=#d6b656;" vertex="1" parent="1">
          <mxGeometry x="190" y="428.65999999999997" width="160" height="40" as="geometry" />
        </mxCell>
        <mxCell id="bhMpjSE9PIOtKv3lSAhE-82" value="&quot;.&quot;" style="rounded=0;whiteSpace=wrap;html=1;strokeColor=#000000;fillColor=#000000;fontColor=#FFFFFF;fontFamily=Verdana;fontStyle=1;fontSize=10;" vertex="1" parent="1">
          <mxGeometry x="147" y="335.5" width="23" height="24.5" as="geometry" />
        </mxCell>
        <mxCell id="bhMpjSE9PIOtKv3lSAhE-83" value="&quot;.com&quot;" style="rounded=0;whiteSpace=wrap;html=1;strokeColor=#000000;fillColor=#000000;fontColor=#FFFFFF;fontFamily=Verdana;fontStyle=1;fontSize=10;" vertex="1" parent="1">
          <mxGeometry x="354.38" y="405.75" width="52.62" height="20" as="geometry" />
        </mxCell>
        <mxCell id="bhMpjSE9PIOtKv3lSAhE-84" value="&quot;helloworld.com&quot;" style="rounded=0;whiteSpace=wrap;html=1;strokeColor=#000000;fillColor=#000000;fontColor=#FFFFFF;fontFamily=Verdana;fontStyle=1;fontSize=10;rotation=-90;" vertex="1" parent="1">
          <mxGeometry x="104.21" y="468.66" width="107" height="20" as="geometry" />
        </mxCell>
        <mxCell id="bhMpjSE9PIOtKv3lSAhE-85" value="" style="sketch=0;html=1;aspect=fixed;strokeColor=none;shadow=0;align=center;fillColor=#2D9C5E;verticalAlign=top;labelPosition=center;verticalLabelPosition=bottom;shape=mxgraph.gcp2.check" vertex="1" parent="1">
          <mxGeometry x="449.00000000000006" y="580" width="26.67" height="21.34" as="geometry" />
        </mxCell>
        <mxCell id="bhMpjSE9PIOtKv3lSAhE-86" value="&quot;www.helloworld.com&quot;" style="rounded=0;whiteSpace=wrap;html=1;strokeColor=#000000;fillColor=#000000;fontColor=#FFFFFF;fontFamily=Verdana;fontStyle=1;fontSize=10;rotation=-90;" vertex="1" parent="1">
          <mxGeometry x="314.1" y="529" width="138.81" height="20" as="geometry" />
        </mxCell>
        <mxCell id="bhMpjSE9PIOtKv3lSAhE-87" value="10.152.168.22" style="rounded=0;whiteSpace=wrap;html=1;strokeColor=#000000;fillColor=#000000;fontColor=#FFFFFF;fontFamily=Verdana;fontStyle=1;fontSize=10;rotation=0;" vertex="1" parent="1">
          <mxGeometry x="272.67" y="629" width="107.33" height="20" as="geometry" />
        </mxCell>
        <mxCell id="bhMpjSE9PIOtKv3lSAhE-88" value="" style="endArrow=classic;html=1;rounded=0;strokeColor=#00CC66;strokeWidth=2;dashed=1;" edge="1" parent="1" source="bhMpjSE9PIOtKv3lSAhE-3">
          <mxGeometry width="50" height="50" relative="1" as="geometry">
            <mxPoint x="480" y="250" as="sourcePoint" />
            <mxPoint x="480" y="280" as="targetPoint" />
          </mxGeometry>
        </mxCell>
        <mxCell id="bhMpjSE9PIOtKv3lSAhE-89" style="edgeStyle=orthogonalEdgeStyle;rounded=0;orthogonalLoop=1;jettySize=auto;html=1;strokeWidth=2;dashed=1;fillColor=#60a917;strokeColor=#2D7600;entryX=0.5;entryY=0;entryDx=0;entryDy=0;" edge="1" parent="1" source="bhMpjSE9PIOtKv3lSAhE-55" target="bhMpjSE9PIOtKv3lSAhE-57">
          <mxGeometry relative="1" as="geometry">
            <mxPoint x="810" y="210" as="sourcePoint" />
            <mxPoint x="1130" y="210" as="targetPoint" />
          </mxGeometry>
        </mxCell>
        <mxCell id="bhMpjSE9PIOtKv3lSAhE-90" value="Server Response" style="rounded=1;whiteSpace=wrap;html=1;fontFamily=Verdana;fontStyle=1;fillColor=#d5e8d4;strokeColor=#82b366;" vertex="1" parent="1">
          <mxGeometry x="1100" y="480" width="120" height="40" as="geometry" />
        </mxCell>
        <mxCell id="bhMpjSE9PIOtKv3lSAhE-91" style="edgeStyle=orthogonalEdgeStyle;rounded=0;orthogonalLoop=1;jettySize=auto;html=1;strokeWidth=2;dashed=1;fillColor=#60a917;strokeColor=#2D7600;exitX=0.5;exitY=1;exitDx=0;exitDy=0;entryX=0.5;entryY=0;entryDx=0;entryDy=0;" edge="1" parent="1" source="bhMpjSE9PIOtKv3lSAhE-57" target="bhMpjSE9PIOtKv3lSAhE-90">
          <mxGeometry relative="1" as="geometry">
            <mxPoint x="1169" y="249" as="sourcePoint" />
            <mxPoint x="1160" y="440" as="targetPoint" />
          </mxGeometry>
        </mxCell>
        <mxCell id="bhMpjSE9PIOtKv3lSAhE-92" value="GET https://www.helloworld.com" style="rounded=0;whiteSpace=wrap;html=1;strokeColor=#000000;fillColor=#000000;fontColor=#FFFFFF;fontFamily=Verdana;fontStyle=1;fontSize=10;rotation=0;" vertex="1" parent="1">
          <mxGeometry x="1061.93" y="428.66" width="200" height="20" as="geometry" />
        </mxCell>
        <mxCell id="bhMpjSE9PIOtKv3lSAhE-96" value="" style="sketch=0;pointerEvents=1;shadow=0;dashed=0;html=1;strokeColor=none;fillColor=#434445;aspect=fixed;labelPosition=center;verticalLabelPosition=bottom;verticalAlign=top;align=center;outlineConnect=0;shape=mxgraph.vvd.web_browser;" vertex="1" parent="1">
          <mxGeometry x="856.0799999999999" y="718" width="112.67" height="80" as="geometry" />
        </mxCell>
        <mxCell id="bhMpjSE9PIOtKv3lSAhE-121" style="edgeStyle=orthogonalEdgeStyle;rounded=0;orthogonalLoop=1;jettySize=auto;html=1;exitX=0.25;exitY=0;exitDx=0;exitDy=0;entryX=0.25;entryY=0;entryDx=0;entryDy=0;" edge="1" parent="1" source="bhMpjSE9PIOtKv3lSAhE-97" target="bhMpjSE9PIOtKv3lSAhE-100">
          <mxGeometry relative="1" as="geometry" />
        </mxCell>
        <mxCell id="bhMpjSE9PIOtKv3lSAhE-97" value="" style="rounded=0;whiteSpace=wrap;html=1;strokeColor=none;fillColor=#f9f7ed;" vertex="1" parent="1">
          <mxGeometry x="861.75" y="742" width="100" height="50" as="geometry" />
        </mxCell>
        <mxCell id="bhMpjSE9PIOtKv3lSAhE-100" value="HTML + CSS + JS" style="text;html=1;align=center;verticalAlign=middle;whiteSpace=wrap;rounded=0;fontFamily=Verdana;fontStyle=1;fontSize=10;textShadow=1;" vertex="1" parent="1">
          <mxGeometry x="858.75" y="753" width="106" height="30" as="geometry" />
        </mxCell>
        <mxCell id="bhMpjSE9PIOtKv3lSAhE-101" style="edgeStyle=orthogonalEdgeStyle;rounded=0;orthogonalLoop=1;jettySize=auto;html=1;strokeWidth=2;dashed=1;fillColor=#60a917;strokeColor=#2D7600;" edge="1" parent="1" target="bhMpjSE9PIOtKv3lSAhE-152">
          <mxGeometry relative="1" as="geometry">
            <mxPoint x="1160" y="520" as="sourcePoint" />
            <mxPoint x="1170" y="640" as="targetPoint" />
          </mxGeometry>
        </mxCell>
        <mxCell id="bhMpjSE9PIOtKv3lSAhE-102" value="" style="strokeWidth=2;html=1;shape=mxgraph.flowchart.annotation_2;align=left;labelPosition=right;pointerEvents=1;fillColor=#008a00;strokeColor=#005700;fontColor=#ffffff;" vertex="1" parent="1">
          <mxGeometry x="1160" y="530" width="160" height="100" as="geometry" />
        </mxCell>
        <mxCell id="bhMpjSE9PIOtKv3lSAhE-103" value="" style="rounded=0;whiteSpace=wrap;html=1;fillColor=#006600;fontColor=#ffffff;strokeColor=#005700;" vertex="1" parent="1">
          <mxGeometry x="1240" y="529" width="200" height="101" as="geometry" />
        </mxCell>
        <mxCell id="bhMpjSE9PIOtKv3lSAhE-104" value="" style="shape=table;startSize=0;container=1;collapsible=0;childLayout=tableLayout;fontSize=11;fillColor=none;strokeColor=none;fontFamily=Verdana;fontColor=#FFFFFF;" vertex="1" parent="1">
          <mxGeometry x="1245" y="531" width="190" height="79" as="geometry" />
        </mxCell>
        <mxCell id="bhMpjSE9PIOtKv3lSAhE-105" value="" style="shape=tableRow;horizontal=0;startSize=0;swimlaneHead=0;swimlaneBody=0;strokeColor=inherit;top=0;left=0;bottom=0;right=0;collapsible=0;dropTarget=0;fillColor=none;points=[[0,0.5],[1,0.5]];portConstraint=eastwest;fontSize=16;" vertex="1" parent="bhMpjSE9PIOtKv3lSAhE-104">
          <mxGeometry width="190" height="19" as="geometry" />
        </mxCell>
        <mxCell id="bhMpjSE9PIOtKv3lSAhE-106" value="1xx - Information Message" style="shape=partialRectangle;html=1;whiteSpace=wrap;connectable=0;strokeColor=inherit;overflow=hidden;fillColor=none;top=0;left=0;bottom=0;right=0;pointerEvents=1;fontSize=12;align=left;spacingLeft=5;fontFamily=Verdana;fontColor=#FFFFFF;" vertex="1" parent="bhMpjSE9PIOtKv3lSAhE-105">
          <mxGeometry width="190" height="19" as="geometry">
            <mxRectangle width="190" height="19" as="alternateBounds" />
          </mxGeometry>
        </mxCell>
        <mxCell id="bhMpjSE9PIOtKv3lSAhE-107" value="" style="shape=tableRow;horizontal=0;startSize=0;swimlaneHead=0;swimlaneBody=0;strokeColor=inherit;top=0;left=0;bottom=0;right=0;collapsible=0;dropTarget=0;fillColor=none;points=[[0,0.5],[1,0.5]];portConstraint=eastwest;fontSize=16;" vertex="1" parent="bhMpjSE9PIOtKv3lSAhE-104">
          <mxGeometry y="19" width="190" height="20" as="geometry" />
        </mxCell>
        <mxCell id="bhMpjSE9PIOtKv3lSAhE-108" value="2xx - Success" style="shape=partialRectangle;html=1;whiteSpace=wrap;connectable=0;strokeColor=inherit;overflow=hidden;fillColor=none;top=0;left=0;bottom=0;right=0;pointerEvents=1;fontSize=12;align=left;spacingLeft=5;fontColor=#FFFFFF;fontFamily=Verdana;" vertex="1" parent="bhMpjSE9PIOtKv3lSAhE-107">
          <mxGeometry width="190" height="20" as="geometry">
            <mxRectangle width="190" height="20" as="alternateBounds" />
          </mxGeometry>
        </mxCell>
        <mxCell id="bhMpjSE9PIOtKv3lSAhE-109" value="" style="shape=tableRow;horizontal=0;startSize=0;swimlaneHead=0;swimlaneBody=0;strokeColor=inherit;top=0;left=0;bottom=0;right=0;collapsible=0;dropTarget=0;fillColor=none;points=[[0,0.5],[1,0.5]];portConstraint=eastwest;fontSize=16;" vertex="1" parent="bhMpjSE9PIOtKv3lSAhE-104">
          <mxGeometry y="39" width="190" height="20" as="geometry" />
        </mxCell>
        <mxCell id="bhMpjSE9PIOtKv3lSAhE-110" value="3xx - Redirects" style="shape=partialRectangle;html=1;whiteSpace=wrap;connectable=0;strokeColor=inherit;overflow=hidden;fillColor=none;top=0;left=0;bottom=0;right=0;pointerEvents=1;fontSize=12;align=left;spacingLeft=5;fontColor=#FFFFFF;fontFamily=Verdana;" vertex="1" parent="bhMpjSE9PIOtKv3lSAhE-109">
          <mxGeometry width="190" height="20" as="geometry">
            <mxRectangle width="190" height="20" as="alternateBounds" />
          </mxGeometry>
        </mxCell>
        <mxCell id="bhMpjSE9PIOtKv3lSAhE-111" style="shape=tableRow;horizontal=0;startSize=0;swimlaneHead=0;swimlaneBody=0;strokeColor=inherit;top=0;left=0;bottom=0;right=0;collapsible=0;dropTarget=0;fillColor=none;points=[[0,0.5],[1,0.5]];portConstraint=eastwest;fontSize=16;" vertex="1" parent="bhMpjSE9PIOtKv3lSAhE-104">
          <mxGeometry y="59" width="190" height="20" as="geometry" />
        </mxCell>
        <mxCell id="bhMpjSE9PIOtKv3lSAhE-112" value="4xx - Client Errors" style="shape=partialRectangle;html=1;whiteSpace=wrap;connectable=0;strokeColor=inherit;overflow=hidden;fillColor=none;top=0;left=0;bottom=0;right=0;pointerEvents=1;fontSize=12;align=left;spacingLeft=5;fontColor=#FFFFFF;fontFamily=Verdana;" vertex="1" parent="bhMpjSE9PIOtKv3lSAhE-111">
          <mxGeometry width="190" height="20" as="geometry">
            <mxRectangle width="190" height="20" as="alternateBounds" />
          </mxGeometry>
        </mxCell>
        <mxCell id="bhMpjSE9PIOtKv3lSAhE-113" style="shape=tableRow;horizontal=0;startSize=0;swimlaneHead=0;swimlaneBody=0;strokeColor=inherit;top=0;left=0;bottom=0;right=0;collapsible=0;dropTarget=0;fillColor=none;points=[[0,0.5],[1,0.5]];portConstraint=eastwest;fontSize=16;" vertex="1" parent="1">
          <mxGeometry x="1255" y="609.5" width="190" height="20" as="geometry" />
        </mxCell>
        <mxCell id="bhMpjSE9PIOtKv3lSAhE-114" value="5xx - Server Errors" style="shape=partialRectangle;html=1;whiteSpace=wrap;connectable=0;strokeColor=inherit;overflow=hidden;fillColor=none;top=0;left=0;bottom=0;right=0;pointerEvents=1;fontSize=12;align=left;spacingLeft=5;fontColor=#FFFFFF;fontFamily=Verdana;" vertex="1" parent="bhMpjSE9PIOtKv3lSAhE-113">
          <mxGeometry x="-10" y="-0.5" width="190" height="20" as="geometry">
            <mxRectangle width="190" height="20" as="alternateBounds" />
          </mxGeometry>
        </mxCell>
        <mxCell id="bhMpjSE9PIOtKv3lSAhE-115" value="HTTP Status Code" style="text;html=1;align=center;verticalAlign=middle;whiteSpace=wrap;rounded=0;fontFamily=Verdana;fontStyle=1;shadow=0;textShadow=1;" vertex="1" parent="1">
          <mxGeometry x="1245" y="500" width="170" height="30" as="geometry" />
        </mxCell>
        <mxCell id="bhMpjSE9PIOtKv3lSAhE-116" value="Parse HTML Document" style="rounded=1;whiteSpace=wrap;html=1;fontFamily=Verdana;fillColor=#fff2cc;strokeColor=#d6b656;" vertex="1" parent="1">
          <mxGeometry x="688.91" y="735" width="104.58" height="40" as="geometry" />
        </mxCell>
        <mxCell id="bhMpjSE9PIOtKv3lSAhE-117" value="Tokenizer" style="rounded=1;whiteSpace=wrap;html=1;fontFamily=Verdana;fillColor=#fff2cc;strokeColor=#d6b656;" vertex="1" parent="1">
          <mxGeometry x="542.04" y="735" width="104.58" height="40" as="geometry" />
        </mxCell>
        <mxCell id="bhMpjSE9PIOtKv3lSAhE-118" value="DOM Tree" style="rounded=1;whiteSpace=wrap;html=1;fontFamily=Verdana;fillColor=#fff2cc;strokeColor=#d6b656;" vertex="1" parent="1">
          <mxGeometry x="401.62" y="735" width="104.58" height="40" as="geometry" />
        </mxCell>
        <mxCell id="bhMpjSE9PIOtKv3lSAhE-119" value="Render Tree" style="rounded=1;whiteSpace=wrap;html=1;fontFamily=Verdana;fillColor=#fff2cc;strokeColor=#d6b656;" vertex="1" parent="1">
          <mxGeometry x="258.91" y="735" width="104.58" height="40" as="geometry" />
        </mxCell>
        <mxCell id="bhMpjSE9PIOtKv3lSAhE-177" style="edgeStyle=orthogonalEdgeStyle;rounded=0;orthogonalLoop=1;jettySize=auto;html=1;exitX=0.5;exitY=1;exitDx=0;exitDy=0;fillColor=#f0a30a;strokeColor=#BD7000;dashed=1;strokeWidth=2;" edge="1" parent="1" source="bhMpjSE9PIOtKv3lSAhE-120" target="bhMpjSE9PIOtKv3lSAhE-163">
          <mxGeometry relative="1" as="geometry" />
        </mxCell>
        <mxCell id="bhMpjSE9PIOtKv3lSAhE-120" value="Painting" style="rounded=1;whiteSpace=wrap;html=1;fontFamily=Verdana;fillColor=#fff2cc;strokeColor=#d6b656;" vertex="1" parent="1">
          <mxGeometry x="120.00000000000006" y="735" width="104.58" height="40" as="geometry" />
        </mxCell>
        <mxCell id="bhMpjSE9PIOtKv3lSAhE-122" value="" style="endArrow=none;html=1;rounded=0;entryX=1;entryY=0.5;entryDx=0;entryDy=0;strokeWidth=2;dashed=1;fillColor=#f0a30a;strokeColor=#BD7000;" edge="1" parent="1" target="bhMpjSE9PIOtKv3lSAhE-116">
          <mxGeometry width="50" height="50" relative="1" as="geometry">
            <mxPoint x="851.75" y="755" as="sourcePoint" />
            <mxPoint x="701.75" y="515" as="targetPoint" />
          </mxGeometry>
        </mxCell>
        <mxCell id="bhMpjSE9PIOtKv3lSAhE-123" value="" style="endArrow=none;html=1;rounded=0;entryX=1;entryY=0.5;entryDx=0;entryDy=0;strokeWidth=2;dashed=1;fillColor=#f0a30a;strokeColor=#BD7000;exitX=0;exitY=0.5;exitDx=0;exitDy=0;" edge="1" parent="1" source="bhMpjSE9PIOtKv3lSAhE-116" target="bhMpjSE9PIOtKv3lSAhE-117">
          <mxGeometry width="50" height="50" relative="1" as="geometry">
            <mxPoint x="681.75" y="755" as="sourcePoint" />
            <mxPoint x="803.75" y="765" as="targetPoint" />
          </mxGeometry>
        </mxCell>
        <mxCell id="bhMpjSE9PIOtKv3lSAhE-124" value="" style="endArrow=none;html=1;rounded=0;entryX=1;entryY=0.5;entryDx=0;entryDy=0;strokeWidth=2;dashed=1;fillColor=#f0a30a;strokeColor=#BD7000;" edge="1" parent="1" target="bhMpjSE9PIOtKv3lSAhE-118">
          <mxGeometry width="50" height="50" relative="1" as="geometry">
            <mxPoint x="541.75" y="755" as="sourcePoint" />
            <mxPoint x="656.75" y="765" as="targetPoint" />
          </mxGeometry>
        </mxCell>
        <mxCell id="bhMpjSE9PIOtKv3lSAhE-125" value="" style="endArrow=none;html=1;rounded=0;entryX=1;entryY=0.5;entryDx=0;entryDy=0;strokeWidth=2;dashed=1;fillColor=#f0a30a;strokeColor=#BD7000;" edge="1" parent="1" target="bhMpjSE9PIOtKv3lSAhE-119">
          <mxGeometry width="50" height="50" relative="1" as="geometry">
            <mxPoint x="401.75" y="755" as="sourcePoint" />
            <mxPoint x="515.75" y="765" as="targetPoint" />
          </mxGeometry>
        </mxCell>
        <mxCell id="bhMpjSE9PIOtKv3lSAhE-126" value="" style="endArrow=none;html=1;rounded=0;entryX=1;entryY=0.5;entryDx=0;entryDy=0;strokeWidth=2;dashed=1;fillColor=#f0a30a;strokeColor=#BD7000;exitX=0;exitY=0.5;exitDx=0;exitDy=0;" edge="1" parent="1" source="bhMpjSE9PIOtKv3lSAhE-119" target="bhMpjSE9PIOtKv3lSAhE-120">
          <mxGeometry width="50" height="50" relative="1" as="geometry">
            <mxPoint x="251.75" y="755" as="sourcePoint" />
            <mxPoint x="525.75" y="775" as="targetPoint" />
          </mxGeometry>
        </mxCell>
        <mxCell id="bhMpjSE9PIOtKv3lSAhE-127" value="Parse CSS StyleSheet" style="rounded=1;whiteSpace=wrap;html=1;fontFamily=Verdana;fillColor=#fff2cc;strokeColor=#d6b656;" vertex="1" parent="1">
          <mxGeometry x="688.91" y="815" width="104.58" height="40" as="geometry" />
        </mxCell>
        <mxCell id="bhMpjSE9PIOtKv3lSAhE-128" value="Tokenizer" style="rounded=1;whiteSpace=wrap;html=1;fontFamily=Verdana;fillColor=#fff2cc;strokeColor=#d6b656;" vertex="1" parent="1">
          <mxGeometry x="544.88" y="815" width="104.58" height="40" as="geometry" />
        </mxCell>
        <mxCell id="bhMpjSE9PIOtKv3lSAhE-130" style="rounded=0;orthogonalLoop=1;jettySize=auto;html=1;exitX=0;exitY=0.5;exitDx=0;exitDy=0;entryX=1;entryY=0.75;entryDx=0;entryDy=0;strokeWidth=2;dashed=1;fillColor=#f0a30a;strokeColor=#BD7000;" edge="1" parent="1" source="bhMpjSE9PIOtKv3lSAhE-129" target="bhMpjSE9PIOtKv3lSAhE-119">
          <mxGeometry relative="1" as="geometry" />
        </mxCell>
        <mxCell id="bhMpjSE9PIOtKv3lSAhE-129" value="CSSOM Tree" style="rounded=1;whiteSpace=wrap;html=1;fontFamily=Verdana;fillColor=#fff2cc;strokeColor=#d6b656;" vertex="1" parent="1">
          <mxGeometry x="401.62" y="815" width="104.58" height="40" as="geometry" />
        </mxCell>
        <mxCell id="bhMpjSE9PIOtKv3lSAhE-131" value="Load &amp;amp; Evaluate" style="rounded=1;whiteSpace=wrap;html=1;fontFamily=Verdana;fillColor=#fff2cc;strokeColor=#d6b656;" vertex="1" parent="1">
          <mxGeometry x="688.91" y="895" width="104.58" height="40" as="geometry" />
        </mxCell>
        <mxCell id="bhMpjSE9PIOtKv3lSAhE-133" style="rounded=0;orthogonalLoop=1;jettySize=auto;html=1;exitX=0;exitY=0.5;exitDx=0;exitDy=0;entryX=1;entryY=0.75;entryDx=0;entryDy=0;fillColor=#f0a30a;strokeColor=#BD7000;strokeWidth=2;dashed=1;" edge="1" parent="1" source="bhMpjSE9PIOtKv3lSAhE-132" target="bhMpjSE9PIOtKv3lSAhE-118">
          <mxGeometry relative="1" as="geometry" />
        </mxCell>
        <mxCell id="bhMpjSE9PIOtKv3lSAhE-132" value="JavaScript" style="rounded=1;whiteSpace=wrap;html=1;fontFamily=Verdana;fillColor=#fff2cc;strokeColor=#d6b656;" vertex="1" parent="1">
          <mxGeometry x="544.88" y="895" width="104.58" height="40" as="geometry" />
        </mxCell>
        <mxCell id="bhMpjSE9PIOtKv3lSAhE-134" value="" style="endArrow=none;html=1;rounded=0;entryX=1;entryY=0.5;entryDx=0;entryDy=0;strokeWidth=2;dashed=1;fillColor=#f0a30a;strokeColor=#BD7000;" edge="1" parent="1" target="bhMpjSE9PIOtKv3lSAhE-127">
          <mxGeometry width="50" height="50" relative="1" as="geometry">
            <mxPoint x="851.75" y="775" as="sourcePoint" />
            <mxPoint x="803.75" y="765" as="targetPoint" />
          </mxGeometry>
        </mxCell>
        <mxCell id="bhMpjSE9PIOtKv3lSAhE-135" value="" style="endArrow=none;html=1;rounded=0;entryX=1;entryY=0.5;entryDx=0;entryDy=0;strokeWidth=2;dashed=1;fillColor=#f0a30a;strokeColor=#BD7000;exitX=0;exitY=0.5;exitDx=0;exitDy=0;" edge="1" parent="1" source="bhMpjSE9PIOtKv3lSAhE-127" target="bhMpjSE9PIOtKv3lSAhE-128">
          <mxGeometry width="50" height="50" relative="1" as="geometry">
            <mxPoint x="861.75" y="765" as="sourcePoint" />
            <mxPoint x="803.75" y="765" as="targetPoint" />
          </mxGeometry>
        </mxCell>
        <mxCell id="bhMpjSE9PIOtKv3lSAhE-136" value="" style="endArrow=none;html=1;rounded=0;entryX=1;entryY=0.5;entryDx=0;entryDy=0;strokeWidth=2;dashed=1;fillColor=#f0a30a;strokeColor=#BD7000;exitX=0;exitY=0.5;exitDx=0;exitDy=0;" edge="1" parent="1" source="bhMpjSE9PIOtKv3lSAhE-128" target="bhMpjSE9PIOtKv3lSAhE-129">
          <mxGeometry width="50" height="50" relative="1" as="geometry">
            <mxPoint x="698.75" y="845" as="sourcePoint" />
            <mxPoint x="659.75" y="845" as="targetPoint" />
          </mxGeometry>
        </mxCell>
        <mxCell id="bhMpjSE9PIOtKv3lSAhE-138" style="edgeStyle=orthogonalEdgeStyle;rounded=0;orthogonalLoop=1;jettySize=auto;html=1;exitX=0.5;exitY=0;exitDx=0;exitDy=0;entryX=0.5;entryY=1;entryDx=0;entryDy=0;strokeWidth=2;dashed=1;fillColor=#f0a30a;strokeColor=#BD7000;" edge="1" parent="1" source="bhMpjSE9PIOtKv3lSAhE-137" target="bhMpjSE9PIOtKv3lSAhE-119">
          <mxGeometry relative="1" as="geometry" />
        </mxCell>
        <mxCell id="bhMpjSE9PIOtKv3lSAhE-137" value="Layout" style="rounded=1;whiteSpace=wrap;html=1;fontFamily=Verdana;fillColor=#fff2cc;strokeColor=#d6b656;" vertex="1" parent="1">
          <mxGeometry x="258.9100000000001" y="815" width="104.58" height="40" as="geometry" />
        </mxCell>
        <mxCell id="bhMpjSE9PIOtKv3lSAhE-152" value="" style="sketch=0;pointerEvents=1;shadow=0;dashed=0;html=1;strokeColor=none;fillColor=#434445;aspect=fixed;labelPosition=center;verticalLabelPosition=bottom;verticalAlign=top;align=center;outlineConnect=0;shape=mxgraph.vvd.web_browser;" vertex="1" parent="1">
          <mxGeometry x="1058.08" y="680" width="203.85" height="144.74" as="geometry" />
        </mxCell>
        <mxCell id="bhMpjSE9PIOtKv3lSAhE-153" value="" style="rounded=0;whiteSpace=wrap;html=1;strokeColor=none;" vertex="1" parent="1">
          <mxGeometry x="1067.12" y="718" width="185.81" height="100" as="geometry" />
        </mxCell>
        <mxCell id="bhMpjSE9PIOtKv3lSAhE-154" value="" style="whiteSpace=wrap;html=1;aspect=fixed;fillColor=#1ba1e2;fontColor=#ffffff;strokeColor=none;" vertex="1" parent="1">
          <mxGeometry x="1208.09" y="720" width="40" height="40" as="geometry" />
        </mxCell>
        <mxCell id="bhMpjSE9PIOtKv3lSAhE-155" value="" style="whiteSpace=wrap;html=1;aspect=fixed;fillColor=#1ba1e2;fontColor=#ffffff;strokeColor=none;" vertex="1" parent="1">
          <mxGeometry x="1071.1799999999998" y="770" width="40" height="40" as="geometry" />
        </mxCell>
        <mxCell id="bhMpjSE9PIOtKv3lSAhE-156" value="" style="rounded=0;whiteSpace=wrap;html=1;fillColor=#1ba1e2;fontColor=#ffffff;strokeColor=none;" vertex="1" parent="1">
          <mxGeometry x="1071.1799999999998" y="721" width="120" height="10" as="geometry" />
        </mxCell>
        <mxCell id="bhMpjSE9PIOtKv3lSAhE-157" value="" style="rounded=0;whiteSpace=wrap;html=1;fillColor=#1ba1e2;fontColor=#ffffff;strokeColor=none;" vertex="1" parent="1">
          <mxGeometry x="1071.1799999999998" y="735" width="120" height="10" as="geometry" />
        </mxCell>
        <mxCell id="bhMpjSE9PIOtKv3lSAhE-158" value="" style="rounded=0;whiteSpace=wrap;html=1;fillColor=#1ba1e2;fontColor=#ffffff;strokeColor=none;" vertex="1" parent="1">
          <mxGeometry x="1071.1799999999998" y="750" width="120" height="10" as="geometry" />
        </mxCell>
        <mxCell id="bhMpjSE9PIOtKv3lSAhE-159" value="" style="rounded=0;whiteSpace=wrap;html=1;fillColor=#1ba1e2;fontColor=#ffffff;strokeColor=none;" vertex="1" parent="1">
          <mxGeometry x="1135.9299999999998" y="770" width="30" height="20" as="geometry" />
        </mxCell>
        <mxCell id="bhMpjSE9PIOtKv3lSAhE-160" value="" style="rounded=0;whiteSpace=wrap;html=1;fillColor=#1ba1e2;fontColor=#ffffff;strokeColor=none;" vertex="1" parent="1">
          <mxGeometry x="1191.1799999999998" y="770" width="30" height="20" as="geometry" />
        </mxCell>
        <mxCell id="bhMpjSE9PIOtKv3lSAhE-161" value="" style="rounded=0;whiteSpace=wrap;html=1;fillColor=#1ba1e2;fontColor=#ffffff;strokeColor=none;" vertex="1" parent="1">
          <mxGeometry x="1127.9299999999998" y="798" width="120" height="10" as="geometry" />
        </mxCell>
        <mxCell id="bhMpjSE9PIOtKv3lSAhE-162" value="Web Page Successfully Loaded" style="text;html=1;align=center;verticalAlign=middle;whiteSpace=wrap;rounded=0;fontFamily=Verdana;fontStyle=1;shadow=0;textShadow=1;rotation=0;" vertex="1" parent="1">
          <mxGeometry x="1082.93" y="840" width="170" height="30" as="geometry" />
        </mxCell>
        <mxCell id="bhMpjSE9PIOtKv3lSAhE-163" value="" style="sketch=0;pointerEvents=1;shadow=0;dashed=0;html=1;strokeColor=none;fillColor=#434445;aspect=fixed;labelPosition=center;verticalLabelPosition=bottom;verticalAlign=top;align=center;outlineConnect=0;shape=mxgraph.vvd.web_browser;" vertex="1" parent="1">
          <mxGeometry x="70.35999999999989" y="920" width="203.85" height="144.74" as="geometry" />
        </mxCell>
        <mxCell id="bhMpjSE9PIOtKv3lSAhE-164" value="" style="rounded=0;whiteSpace=wrap;html=1;strokeColor=none;fillColor=#f9f7ed;" vertex="1" parent="1">
          <mxGeometry x="79.37999999999987" y="959" width="185.81" height="100" as="geometry" />
        </mxCell>
        <mxCell id="bhMpjSE9PIOtKv3lSAhE-170" style="edgeStyle=orthogonalEdgeStyle;rounded=0;orthogonalLoop=1;jettySize=auto;html=1;exitX=0;exitY=0.5;exitDx=0;exitDy=0;entryX=0;entryY=0.5;entryDx=0;entryDy=0;curved=1;dashed=1;fillColor=#f0a30a;strokeColor=#BD7000;" edge="1" parent="1" source="bhMpjSE9PIOtKv3lSAhE-165" target="bhMpjSE9PIOtKv3lSAhE-166">
          <mxGeometry relative="1" as="geometry">
            <Array as="points">
              <mxPoint x="79.37999999999998" y="970" />
              <mxPoint x="79.37999999999998" y="1001" />
            </Array>
          </mxGeometry>
        </mxCell>
        <mxCell id="bhMpjSE9PIOtKv3lSAhE-171" style="edgeStyle=orthogonalEdgeStyle;rounded=0;orthogonalLoop=1;jettySize=auto;html=1;exitX=1;exitY=0.5;exitDx=0;exitDy=0;entryX=1;entryY=0.5;entryDx=0;entryDy=0;curved=1;fillColor=#f0a30a;strokeColor=#BD7000;dashed=1;" edge="1" parent="1" source="bhMpjSE9PIOtKv3lSAhE-165" target="bhMpjSE9PIOtKv3lSAhE-166">
          <mxGeometry relative="1" as="geometry">
            <Array as="points">
              <mxPoint x="209.38" y="970" />
              <mxPoint x="209.38" y="1001" />
            </Array>
          </mxGeometry>
        </mxCell>
        <mxCell id="bhMpjSE9PIOtKv3lSAhE-165" value="User Interface" style="rounded=1;whiteSpace=wrap;html=1;fontFamily=Verdana;fontSize=10;fillColor=#f0a30a;fontColor=#000000;strokeColor=#BD7000;" vertex="1" parent="1">
          <mxGeometry x="96.37999999999998" y="959" width="93" height="21" as="geometry" />
        </mxCell>
        <mxCell id="bhMpjSE9PIOtKv3lSAhE-166" value="Browser Engine" style="rounded=1;whiteSpace=wrap;html=1;fontFamily=Verdana;fontSize=10;fillColor=#d0cee2;strokeColor=#56517e;" vertex="1" parent="1">
          <mxGeometry x="96.37999999999998" y="990" width="93" height="21" as="geometry" />
        </mxCell>
        <mxCell id="bhMpjSE9PIOtKv3lSAhE-173" style="edgeStyle=orthogonalEdgeStyle;rounded=0;orthogonalLoop=1;jettySize=auto;html=1;exitX=1;exitY=1;exitDx=0;exitDy=0;entryX=0.5;entryY=1;entryDx=0;entryDy=0;curved=1;dashed=1;strokeColor=#00CC66;" edge="1" parent="1" source="bhMpjSE9PIOtKv3lSAhE-167" target="bhMpjSE9PIOtKv3lSAhE-169">
          <mxGeometry relative="1" as="geometry">
            <mxPoint x="249.38" y="1060" as="targetPoint" />
            <Array as="points">
              <mxPoint x="189.36" y="1060" />
              <mxPoint x="230.36" y="1060" />
            </Array>
          </mxGeometry>
        </mxCell>
        <mxCell id="bhMpjSE9PIOtKv3lSAhE-174" style="edgeStyle=orthogonalEdgeStyle;rounded=0;orthogonalLoop=1;jettySize=auto;html=1;exitX=1;exitY=0;exitDx=0;exitDy=0;entryX=0;entryY=0.5;entryDx=0;entryDy=0;curved=1;dashed=1;strokeColor=#00CC66;" edge="1" parent="1" source="bhMpjSE9PIOtKv3lSAhE-167" target="bhMpjSE9PIOtKv3lSAhE-168">
          <mxGeometry relative="1" as="geometry">
            <Array as="points">
              <mxPoint x="189.36" y="1020" />
              <mxPoint x="190.36" y="1020" />
              <mxPoint x="190.36" y="1009" />
            </Array>
          </mxGeometry>
        </mxCell>
        <mxCell id="bhMpjSE9PIOtKv3lSAhE-167" value="Render Engine" style="rounded=1;whiteSpace=wrap;html=1;fontFamily=Verdana;fontSize=10;fillColor=#00CC66;" vertex="1" parent="1">
          <mxGeometry x="96.37999999999998" y="1023.74" width="93" height="21" as="geometry" />
        </mxCell>
        <mxCell id="bhMpjSE9PIOtKv3lSAhE-168" value="Networking" style="rounded=1;whiteSpace=wrap;html=1;fontFamily=Verdana;fontSize=10;fillColor=#FF0000;strokeColor=#CC0000;" vertex="1" parent="1">
          <mxGeometry x="204.20999999999998" y="998.5" width="56.15" height="21" as="geometry" />
        </mxCell>
        <mxCell id="bhMpjSE9PIOtKv3lSAhE-169" value="JS Engine" style="rounded=1;whiteSpace=wrap;html=1;fontFamily=Verdana;fontSize=10;fillColor=#a0522d;fontColor=#ffffff;strokeColor=#6D1F00;" vertex="1" parent="1">
          <mxGeometry x="195.18999999999994" y="1030" width="70" height="21" as="geometry" />
        </mxCell>
        <mxCell id="bhMpjSE9PIOtKv3lSAhE-181" value="" style="curved=1;endArrow=classic;html=1;rounded=0;entryX=0.5;entryY=0;entryDx=0;entryDy=0;dashed=1;strokeWidth=2;fillColor=#ffff88;strokeColor=#FFD966;" edge="1" parent="1" target="bhMpjSE9PIOtKv3lSAhE-178">
          <mxGeometry width="50" height="50" relative="1" as="geometry">
            <mxPoint x="1160" y="650" as="sourcePoint" />
            <mxPoint x="630" y="850" as="targetPoint" />
            <Array as="points">
              <mxPoint x="930" y="660" />
              <mxPoint x="750" y="620" />
              <mxPoint x="640" y="670" />
              <mxPoint x="550" y="640" />
            </Array>
          </mxGeometry>
        </mxCell>
        <mxCell id="bhMpjSE9PIOtKv3lSAhE-184" value="" style="curved=1;endArrow=classic;html=1;rounded=0;exitX=1;exitY=0.75;exitDx=0;exitDy=0;strokeColor=#00CC66;strokeWidth=2;dashed=1;" edge="1" parent="1" source="bhMpjSE9PIOtKv3lSAhE-178" target="bhMpjSE9PIOtKv3lSAhE-152">
          <mxGeometry width="50" height="50" relative="1" as="geometry">
            <mxPoint x="610" y="800" as="sourcePoint" />
            <mxPoint x="1170" y="870" as="targetPoint" />
            <Array as="points">
              <mxPoint x="1140" y="1000" />
              <mxPoint x="1130" y="950" />
              <mxPoint x="1180" y="910" />
            </Array>
          </mxGeometry>
        </mxCell>
        <mxCell id="bhMpjSE9PIOtKv3lSAhE-185" value="" style="sketch=0;html=1;aspect=fixed;strokeColor=none;shadow=0;align=center;fillColor=#2D9C5E;verticalAlign=top;labelPosition=center;verticalLabelPosition=bottom;shape=mxgraph.gcp2.check" vertex="1" parent="1">
          <mxGeometry x="1160" y="884.33" width="26.67" height="21.34" as="geometry" />
        </mxCell>
        <mxCell id="bhMpjSE9PIOtKv3lSAhE-186" value="" style="html=1;verticalLabelPosition=bottom;align=center;labelBackgroundColor=#ffffff;verticalAlign=top;strokeWidth=2;strokeColor=#9673a6;shadow=0;dashed=0;shape=mxgraph.ios7.icons.reload;fillColor=#e1d5e7;" vertex="1" parent="1">
          <mxGeometry x="1020" y="957" width="24" height="23" as="geometry" />
        </mxCell>
      </root>
    </mxGraphModel>
  </diagram>
</mxfile>
